<svg xmlns="http://www.w3.org/2000/svg" viewBox="0 0 32 32"><defs><linearGradient id="linear0" x1="23.7288" x2="126.942" y1="0.0000360806" y2="12.7733" gradientTransform="scale(.26667)" gradientUnits="userSpaceOnUse"><stop offset="0" style="stop-color:#ed0233;stop-opacity:1"/><stop offset="1" style="stop-color:#003eb7;stop-opacity:1"/></linearGradient></defs><g id="surface1"><path d="M0 0h32v32h-32z" style="fill:url(#linear0);stroke:none"/><path d="M15.85 25.87q-1.6 0-2.79-.5a3.5 3.5 0 0 1-1.8-1.75q-.6-1.24-.6-3.52v-1.12h3.22v1.38q0 1.39.26 2.15.27.75.73 1.05.45.26 1.05.26.95 0 1.5-.62.6-.66.6-2.44 0-1.32-.4-1.97-.39-.67-1.24-1.06-.82-.42-2.14-.96a8 8 0 0 1-1.87-1.15q-.79-.66-1.18-1.68a7 7 0 0 1-.4-2.53q0-1.85.47-3 .49-1.2 1.64-1.71 1.15-.57 3.08-.57 2.5 0 3.8 1.16 1.32 1.11 1.33 3.3v2.27h-3.09v-1.36q0-1.5-.5-2.17-.45-.7-1.5-.7-1.09 0-1.58.67-.46.62-.46 2 0 1.2.46 1.85.46.63 1.18.99.76.36 1.54.66 1.48.55 2.4 1.15t1.35 1.58q.42 1 .42 2.8 0 2.07-.69 3.3a3.8 3.8 0 0 1-1.9 1.71q-1.21.53-2.89.53m0 0" style="stroke:none;fill-rule:nonzero;fill:#fff;fill-opacity:1"/></g></svg>