<svg xmlns="http://www.w3.org/2000/svg" xmlns:xlink="http://www.w3.org/1999/xlink"><symbol id="sprite-minus" fill="none" viewBox="0 0 20 2"><path stroke="#fff" d="M20 1h-20"/></symbol><use xlink:href="#sprite-minus" width="20" height="2"/><view id="sprite-minus-view" viewBox="0 0 20 2"/><symbol id="sprite-next-icon" fill="none" viewBox="0 0 18 32"><path stroke="currentColor" d="m1 0 16 16-16 16"/></symbol><use xlink:href="#sprite-next-icon" width="18" height="32" y="2"/><view id="sprite-next-icon-view" viewBox="0 2 18 32"/><symbol id="sprite-ok-icon" fill="currentColor" viewBox="0 0 14 22"><path d="M7 3.33c1.32 0 2.4 1.05 2.4 2.35s-1.08 2.35-2.4 2.35-2.4-1.06-2.4-2.35c0-1.3 1.08-2.35 2.4-2.35m0 8.02c3.2 0 5.8-2.54 5.8-5.67s-2.6-5.68-5.8-5.68-5.79 2.55-5.79 5.68 2.6 5.68 5.79 5.68m2.34 4.63a11 11 0 0 0 3.37-1.37 1.64 1.64 0 0 0 .53-2.3 1.7 1.7 0 0 0-2.34-.52 7.5 7.5 0 0 1-7.8 0 1.7 1.7 0 0 0-2.34.53 1.64 1.64 0 0 0 .53 2.29 11 11 0 0 0 3.37 1.37l-3.24 3.17a1.64 1.64 0 0 0 0 2.35 1.73 1.73 0 0 0 2.4 0l3.18-3.12 3.18 3.12a1.7 1.7 0 0 0 2.4 0 1.64 1.64 0 0 0 0-2.35z"/></symbol><use xlink:href="#sprite-ok-icon" width="14" height="22" y="34"/><view id="sprite-ok-icon-view" viewBox="0 34 14 22"/><symbol id="sprite-play-icon" fill="currentColor" viewBox="0 0 9 12"><path d="m9 6-9 5.2v-10.4z"/></symbol><use xlink:href="#sprite-play-icon" width="9" height="12" y="56"/><view id="sprite-play-icon-view" viewBox="0 56 9 12"/><symbol id="sprite-plus-white-icon" fill="none" viewBox="0 0 14 14"><path stroke="#fff" d="M7 0v7m0 7v-7m0 0h7m-7 0h-7"/></symbol><use xlink:href="#sprite-plus-white-icon" width="14" height="14" y="68"/><view id="sprite-plus-white-icon-view" viewBox="0 68 14 14"/><symbol id="sprite-plus" fill="none" viewBox="0 0 14 14"><path stroke="#1C3374" d="M7 0v7m0 7v-7m0 0h7m-7 0h-7"/></symbol><use xlink:href="#sprite-plus" width="14" height="14" y="82"/><view id="sprite-plus-view" viewBox="0 82 14 14"/><symbol id="sprite-prev-icon" fill="none" viewBox="0 0 18 32"><path stroke="currentColor" d="m17 1-16 16 16 16"/></symbol><use xlink:href="#sprite-prev-icon" width="18" height="32" y="96"/><view id="sprite-prev-icon-view" viewBox="0 96 18 32"/><symbol id="sprite-reddit-icon" fill="currentColor" viewBox="0 0 20 22"><path d="M11.95.5a2.1 2.1 0 0 0-1.63.83c-.39.5-.6 1.1-.76 1.73a15 15 0 0 0-.34 3.17c-1.8.12-3.43.68-4.79 1.55a2.8 2.8 0 0 0-1.85-.75 2.4 2.4 0 0 0-1.92 1 3.8 3.8 0 0 0 .27 4.64 7 7 0 0 0-.12 1.18c0 4.23 4.11 7.65 9.19 7.65s9.2-3.43 9.2-7.65q-.01-.6-.13-1.18a3.8 3.8 0 0 0 .27-4.63 2.4 2.4 0 0 0-1.92-1.01c-.64 0-1.3.26-1.85.75a10 10 0 0 0-4.77-1.56c.03-.93.1-1.9.27-2.64q.17-.7.39-.98c.22-.28.25-.26.49-.26.52 0 .58.18.9.6.15.22.34.5.63.75.29.27.72.5 1.19.5v-1.85c-.13 0-.16 0-.24-.09q-.13-.13-.4-.51c-.35-.5-1.05-1.24-2.08-1.24m5.06.17c-1.22 0-2.2 1.16-2.2 2.6 0 1.42.98 2.58 2.2 2.58s2.18-1.16 2.18-2.59-.98-2.59-2.19-2.59m0 .92c.78 0 1.41.75 1.41 1.67s-.63 1.67-1.4 1.67-1.42-.75-1.42-1.67.64-1.67 1.41-1.67m-7 6.07c4.3 0 7.95 2.84 7.95 6.19s-3.64 6.18-7.95 6.18-7.95-2.83-7.95-6.18 3.64-6.19 7.95-6.19m-7.4.84q.34 0 .66.17-1.18 1.05-1.82 2.42c-.3-.72-.21-1.6.15-2.07a1.2 1.2 0 0 1 1.02-.52m14.78 0q.61 0 1.02.51c.36.48.44 1.37.15 2.08a8 8 0 0 0-1.82-2.42 2 2 0 0 1 .65-.17m-10.5 2.3c-.78 0-1.41.75-1.41 1.67s.63 1.67 1.4 1.67 1.42-.75 1.42-1.67-.63-1.67-1.41-1.67m6.22 0c-.78 0-1.4.75-1.4 1.67s.62 1.67 1.4 1.67 1.41-.75 1.41-1.67-.63-1.67-1.4-1.67m-6.99 5.67c.5 1.2 2.03 2.38 3.87 2.38s3.4-1.17 3.89-2.38c-.9.68-2.32 1.15-3.89 1.15s-2.97-.47-3.87-1.15"/></symbol><use xlink:href="#sprite-reddit-icon" width="20" height="22" y="128"/><view id="sprite-reddit-icon-view" viewBox="0 128 20 22"/><symbol id="sprite-ruble-icon" fill="none" viewBox="0 0 24 34"><path fill="#102654" fill-rule="evenodd" d="M14.8 5.21h-6.8v8.65h6.8c2.43 0 4.4-1.94 4.4-4.32a4.36 4.36 0 0 0-4.4-4.33m-11.6-4.71v18.07h11.6c5.08 0 9.2-4.04 9.2-9.03s-4.12-9.04-9.2-9.04z" clip-rule="evenodd"/><path fill="#102654" fill-rule="evenodd" d="M0 13.86h4.8v4.71h-4.8z" clip-rule="evenodd"/><path fill="#102654" fill-rule="evenodd" d="M2.93 22.75v-8.1h4.8v8.1h9.07v4.72h-9.07v6.03h-4.8v-6.03h-2.93v-4.72z" clip-rule="evenodd"/></symbol><use xlink:href="#sprite-ruble-icon" width="24" height="34" y="150"/><view id="sprite-ruble-icon-view" viewBox="0 150 24 34"/><symbol id="sprite-vk-icon" fill="currentColor" viewBox="0 0 22 12"><path d="M21.8 10.7c-.06-.1-.42-.85-2.18-2.41-1.84-1.64-1.6-1.37.62-4.2 1.36-1.72 1.9-2.77 1.73-3.22-.16-.43-1.16-.32-1.16-.32l-3.3.02s-.25-.03-.43.07-.3.34-.3.34-.52 1.33-1.22 2.47c-1.47 2.39-2.06 2.51-2.3 2.37-.56-.35-.42-1.4-.42-2.14 0-2.31.37-3.28-.72-3.53a6 6 0 0 0-1.54-.15c-1.18-.01-2.18 0-2.74.27-.38.18-.67.57-.5.6.23.02.72.12.98.46.34.44.33 1.43.33 1.43s.2 2.73-.46 3.07c-.44.23-1.06-.24-2.37-2.41-.67-1.11-1.18-2.34-1.18-2.34s-.1-.23-.27-.35c-.21-.15-.51-.2-.51-.2l-3.14.02s-.47.01-.65.2c-.15.18-.01.54-.01.54s2.46 5.5 5.25 8.28c2.55 2.55 5.46 2.38 5.46 2.38h1.3s.4-.04.6-.25.19-.55.19-.55-.03-1.69.8-1.94c.8-.24 1.84 1.63 2.93 2.35.83.55 1.47.43 1.47.43l2.94-.04s1.53-.1.8-1.25"/></symbol><use xlink:href="#sprite-vk-icon" width="22" height="12" y="184"/><view id="sprite-vk-icon-view" viewBox="0 184 22 12"/></svg>